<svg xmlns="http://www.w3.org/2000/svg" width="246px" height="40px" viewBox="0 0 246 40" fill="none">
<path d="M81.6373 11.8095C82.8893 13.2079 83.5153 15.4669 83.5153 18.5863V29.4471C83.5383 29.8104 83.4811 30.1744 83.3479 30.5132C83.2147 30.8521 83.0086 31.1576 82.7442 31.4081C82.1837 31.8801 81.4661 32.1243 80.7338 32.0924C80.0156 32.1196 79.3134 31.8753 78.7676 31.4081C78.503 31.1577 78.2968 30.8522 78.1636 30.5133C78.0303 30.1745 77.9733 29.8104 77.9965 29.4471V18.5863C77.9965 16.968 77.7094 15.8128 77.135 15.1209C76.8045 14.7597 76.3959 14.4785 75.9403 14.2986C75.4847 14.1188 74.994 14.045 74.5056 14.0829C73.8569 14.0552 73.2102 14.1737 72.6135 14.4298C72.0168 14.6859 71.4855 15.0729 71.059 15.5621C70.1512 16.7065 69.6953 18.144 69.7776 19.6019V29.4471C69.8007 29.8104 69.7436 30.1744 69.6103 30.5133C69.4771 30.8521 69.271 31.1576 69.0065 31.4081C68.4615 31.8744 67.7609 32.1186 67.0438 32.0924C66.3192 32.1167 65.6111 31.8731 65.0552 31.4081C64.7844 31.1614 64.5723 30.8572 64.4347 30.5178C64.297 30.1784 64.2372 29.8126 64.2596 29.4471V18.5863C64.2596 16.968 63.9722 15.8128 63.3974 15.1209C63.0669 14.7598 62.6584 14.4786 62.2029 14.2988C61.7475 14.1189 61.257 14.0451 60.7687 14.0829C60.1231 14.0539 59.4793 14.172 58.886 14.4283C58.2928 14.6845 57.7656 15.0723 57.3445 15.5621C56.4497 16.7124 56.0016 18.1473 56.0827 19.6019V29.4471C56.1052 29.8125 56.0455 30.1783 55.9079 30.5177C55.7704 30.857 55.5585 31.1613 55.2878 31.4081C54.7319 31.8731 54.0238 32.1167 53.2992 32.0924C52.5821 32.1187 51.8814 31.8744 51.3364 31.4081C51.0719 31.1577 50.8658 30.8522 50.7325 30.5133C50.5993 30.1744 50.5422 29.8104 50.5654 29.4471V12.3579C50.5438 12.0017 50.6042 11.6453 50.7422 11.3161C50.8801 10.9869 51.0918 10.6937 51.361 10.4592C51.9226 10.0066 52.6286 9.77143 53.3496 9.79662C54.0336 9.76838 54.7035 9.99672 55.2276 10.4368C55.4768 10.6696 55.6714 10.9545 55.7974 11.2713C55.9234 11.588 55.9778 11.9287 55.9565 12.2689V13.3286C56.5911 12.1939 57.5327 11.2606 58.6735 10.6357C59.8774 10.0005 61.2231 9.68137 62.5843 9.70837C65.8246 9.70837 67.9897 11.0624 69.0794 13.7705C69.7327 12.5288 70.7306 11.5016 71.9534 10.8122C73.257 10.0668 74.7374 9.68551 76.2392 9.70837C78.5954 9.70837 80.3997 10.4073 81.6521 11.8053" fill="#CBC081"/>
<path d="M93.1697 30.8129C91.5194 29.9152 90.1737 28.5473 89.3039 26.8831C88.3585 25.041 87.8878 22.9925 87.9342 20.9229C87.8862 18.8603 88.3572 16.8187 89.3039 14.9851C90.1792 13.3306 91.524 11.9713 93.1697 11.0777C94.9743 10.1777 96.9635 9.70923 98.9804 9.70923C100.997 9.70923 102.987 10.1777 104.791 11.0777C106.433 11.9685 107.772 13.3291 108.635 14.9851C109.568 16.8231 110.031 18.8629 109.983 20.9229C110.029 22.9899 109.566 25.0366 108.635 26.8831C107.777 28.5487 106.438 29.9179 104.791 30.8129C102.987 31.7128 100.997 32.1813 98.9804 32.1813C96.9636 32.1813 94.9743 31.7128 93.1697 30.8129ZM103.046 26.133C103.988 24.9564 104.46 23.2197 104.46 20.9229C104.46 18.6569 103.988 16.9277 103.046 15.7352C102.558 15.1368 101.935 14.6627 101.229 14.3518C100.522 14.0409 99.7511 13.9023 98.9801 13.9472C98.2061 13.9037 97.4328 14.0429 96.7227 14.3536C96.0126 14.6642 95.3857 15.1375 94.8927 15.7352C93.9352 16.9273 93.4564 18.6565 93.4564 20.9229C93.4564 23.2187 93.9277 24.9554 94.8703 26.133C95.3614 26.7258 95.9855 27.1947 96.6919 27.5014C97.3983 27.8082 98.1671 27.9443 98.9359 27.8987C99.7116 27.9471 100.488 27.8126 101.202 27.5058C101.916 27.1991 102.547 26.7288 103.046 26.133Z" fill="#CBC081"/>
<path d="M131.944 11.0813C133.417 12.0286 134.59 13.3764 135.324 14.9663C136.169 16.8064 136.584 18.8142 136.539 20.8382C136.579 22.883 136.164 24.9111 135.324 26.776C134.593 28.4032 133.413 29.7881 131.921 30.7682C130.439 31.7172 128.71 32.2086 126.95 32.1808C125.494 32.2067 124.056 31.8569 122.774 31.1653C121.582 30.5188 120.607 29.5362 119.97 28.34V29.4438C119.987 29.7954 119.929 30.1465 119.799 30.4739C119.67 30.8012 119.472 31.0973 119.219 31.3425C118.675 31.8298 117.96 32.0837 117.23 32.0492C116.872 32.0676 116.514 32.0147 116.176 31.8933C115.839 31.772 115.529 31.5847 115.264 31.3425C115.017 31.0939 114.825 30.7967 114.699 30.4698C114.574 30.1429 114.518 29.7935 114.535 29.4438V3.03959C114.522 2.69323 114.584 2.34808 114.717 2.02799C114.85 1.70791 115.051 1.42054 115.306 1.1857C115.86 0.700782 116.58 0.447942 117.317 0.47972C118.039 0.44472 118.748 0.680785 119.305 1.14156C119.556 1.36904 119.754 1.64942 119.884 1.96248C120.014 2.27555 120.072 2.61353 120.056 2.95205V13.3715C120.69 12.2078 121.66 11.2617 122.84 10.6562C124.111 10.0085 125.522 9.68266 126.949 9.70716C128.71 9.67317 130.444 10.1484 131.942 11.0757M129.558 26.0427C130.53 24.8063 131.016 23.0699 131.016 20.8334C131.016 18.6258 130.538 16.9334 129.58 15.7563C129.056 15.1971 128.422 14.7518 127.718 14.448C127.014 14.1442 126.255 13.9885 125.488 13.9905C124.722 13.9926 123.963 14.1523 123.261 14.4599C122.559 14.7674 121.927 15.2161 121.406 15.778C120.448 16.9701 119.969 18.6846 119.97 20.9216C119.97 23.1586 120.449 24.8803 121.406 26.0869C121.92 26.6601 122.55 27.1179 123.255 27.43C123.959 27.742 124.722 27.9012 125.492 27.897C126.263 27.8928 127.023 27.7254 127.724 27.4058C128.425 27.0861 129.05 26.6216 129.558 26.0427Z" fill="#CBC081"/>
<path d="M141.445 5.05516C141.152 4.78286 140.921 4.4506 140.769 4.08109C140.616 3.71157 140.545 3.31351 140.561 2.9141C140.544 2.51772 140.614 2.12246 140.767 1.75624C140.92 1.39003 141.151 1.0618 141.445 0.794763C142.129 0.278995 142.963 0 143.82 0C144.677 0 145.51 0.278995 146.194 0.794763C146.494 1.0585 146.73 1.38559 146.887 1.75222C147.044 2.11885 147.116 2.51578 147.1 2.9141C147.116 3.31349 147.045 3.7115 146.892 4.08098C146.739 4.45047 146.509 4.78275 146.216 5.05516C145.534 5.58457 144.694 5.87193 143.83 5.87193C142.966 5.87193 142.126 5.58457 141.444 5.05516M141.865 31.4124C141.6 31.1616 141.393 30.8555 141.26 30.516C141.127 30.1765 141.07 29.8118 141.093 29.4479V12.4056C141.068 12.0448 141.125 11.6829 141.258 11.3466C141.392 11.0104 141.599 10.7083 141.865 10.4628C142.417 10.0086 143.116 9.77308 143.831 9.8009C144.552 9.77558 145.258 10.0105 145.819 10.4628C146.092 10.7045 146.305 11.0052 146.443 11.342C146.581 11.6787 146.64 12.0426 146.615 12.4056V29.4471C146.638 29.8132 146.578 30.1798 146.441 30.5198C146.303 30.8598 146.091 31.1646 145.819 31.4117C145.264 31.8767 144.555 32.1203 143.831 32.096C143.113 32.1232 142.41 31.8795 141.865 31.4124Z" fill="#CBC081"/>
<path d="M153.087 31.4118C152.822 31.1609 152.616 30.8549 152.482 30.5154C152.349 30.1758 152.292 29.8111 152.316 29.4472V3.08995C152.291 2.7291 152.347 2.3672 152.48 2.03094C152.614 1.69469 152.821 1.39267 153.087 1.14712C153.638 0.693695 154.337 0.45817 155.05 0.485256C155.771 0.459995 156.477 0.694948 157.039 1.14712C157.311 1.38892 157.524 1.68971 157.661 2.02645C157.799 2.3632 157.858 2.72698 157.833 3.08995V29.4472C157.856 29.8132 157.797 30.1797 157.659 30.5197C157.522 30.8597 157.31 31.1646 157.039 31.4118C156.483 31.8767 155.774 32.1204 155.05 32.096C154.333 32.1225 153.632 31.8782 153.087 31.4118Z" fill="#CBC081"/>
<path d="M163.891 5.05516C163.598 4.78286 163.368 4.4506 163.215 4.08109C163.062 3.71157 162.992 3.31351 163.007 2.9141C162.99 2.51772 163.061 2.12246 163.213 1.75624C163.366 1.39003 163.597 1.0618 163.891 0.794763C164.575 0.278995 165.409 0 166.266 0C167.123 0 167.957 0.278995 168.641 0.794763C168.94 1.0585 169.177 1.38559 169.333 1.75222C169.49 2.11885 169.563 2.51578 169.546 2.9141C169.562 3.31343 169.491 3.7114 169.339 4.08087C169.186 4.45035 168.956 4.78266 168.663 5.05516C167.981 5.58457 167.141 5.87193 166.277 5.87193C165.413 5.87193 164.574 5.58457 163.891 5.05516ZM164.312 31.4124C164.047 31.1616 163.84 30.8555 163.707 30.516C163.574 30.1765 163.517 29.8118 163.541 29.4479V12.4056C163.515 12.0448 163.572 11.6829 163.705 11.3466C163.839 11.0104 164.046 10.7083 164.312 10.4628C164.863 10.0095 165.561 9.77395 166.274 9.8009C166.995 9.77564 167.701 10.0106 168.263 10.4628C168.535 10.7046 168.748 11.0054 168.886 11.3421C169.024 11.6789 169.083 12.0426 169.058 12.4056V29.4471C169.081 29.8132 169.021 30.1797 168.884 30.5197C168.746 30.8597 168.534 31.1645 168.263 31.4117C167.707 31.8767 166.999 32.1203 166.274 32.096C165.557 32.1222 164.857 31.8786 164.312 31.4124Z" fill="#CBC081"/>
<path d="M189.122 29.9774C189.136 30.2984 189.063 30.6171 188.912 30.9005C188.76 31.1838 188.535 31.4213 188.26 31.5882C187.51 31.9929 186.653 32.1549 185.807 32.0519L184.615 31.9637C179.667 31.6107 177.192 28.9616 177.192 24.0165V14.3926H174.983C174.328 14.4358 173.679 14.2485 173.149 13.8631C172.946 13.6603 172.785 13.4194 172.675 13.1543C172.565 12.8892 172.508 12.6051 172.508 12.3181C172.508 12.0311 172.565 11.747 172.675 11.4819C172.785 11.2168 172.946 10.9759 173.149 10.7731C173.679 10.3877 174.328 10.2004 174.983 10.2436H177.192V6.18141C177.175 5.82977 177.234 5.47861 177.363 5.15124C177.493 4.82387 177.691 4.52779 177.944 4.28269C178.502 3.79033 179.232 3.5366 179.976 3.57601C180.706 3.54205 181.421 3.79582 181.965 4.28269C182.218 4.52789 182.416 4.82398 182.545 5.15132C182.675 5.47867 182.733 5.82979 182.716 6.18141V10.2436H186.472C187.127 10.2004 187.776 10.3877 188.306 10.7731C188.716 11.1829 188.946 11.7386 188.946 12.3181C188.946 12.8976 188.716 13.4534 188.306 13.8631C187.776 14.2485 187.127 14.4358 186.472 14.3926H182.716V24.4143C182.716 26.5929 183.718 27.7556 185.721 27.9022L186.913 27.9904C188.385 28.0787 189.122 28.741 189.122 29.9774Z" fill="#CBC081"/>
<path d="M208.364 10.2205C208.754 9.97293 209.206 9.84261 209.667 9.84513C210.341 9.84406 210.993 10.0872 211.501 10.5294C211.759 10.7312 211.966 10.9894 212.108 11.2842C212.25 11.5789 212.322 11.9022 212.319 12.2292C212.311 12.5837 212.22 12.9315 212.054 13.2448L199.991 38.4982C199.797 38.9546 199.47 39.342 199.052 39.6098C198.634 39.8776 198.146 40.0132 197.649 39.9991C196.995 40.0074 196.36 39.7802 195.86 39.359C195.616 39.1681 195.419 38.9233 195.285 38.6439C195.151 38.3644 195.084 38.0578 195.089 37.7481C195.102 37.3661 195.192 36.9907 195.354 36.6443L198.359 30.3311L190.14 13.242C189.987 12.9255 189.911 12.5776 189.918 12.2264C189.918 11.8922 189.996 11.5627 190.146 11.2638C190.295 10.9649 190.512 10.7048 190.78 10.5042C191.33 10.0419 192.027 9.79126 192.746 9.79748C193.229 9.79284 193.703 9.92286 194.116 10.1729C194.553 10.4529 194.892 10.8616 195.087 11.3425L201.274 24.9845L207.416 11.3866C207.608 10.9102 207.939 10.5026 208.366 10.217" fill="#CBC081"/>
<path d="M5.51603 31.1497C3.8137 30.2076 2.42821 28.7835 1.53381 27.0567C0.613224 25.112 0.135742 22.9875 0.135742 20.8363C0.135742 18.6851 0.613224 16.5606 1.53381 14.6159C2.42612 12.8918 3.81257 11.4727 5.51603 10.5397C7.41019 9.59972 9.49641 9.1106 11.6113 9.1106C13.7263 9.1106 15.8125 9.59972 17.7066 10.5397C19.4077 11.4705 20.7896 12.8906 21.6727 14.6159C22.5855 16.5633 23.0573 18.6878 23.0545 20.8381C23.0517 22.9884 22.5744 25.1117 21.6566 27.0567C20.762 28.7834 19.3766 30.2074 17.6744 31.1497C15.7891 32.1 13.7069 32.5951 11.5952 32.5951C9.48356 32.5951 7.40135 32.1 5.51603 31.1497ZM15.6752 26.177C16.6505 24.9537 17.1382 23.1726 17.1382 20.8339C17.1382 18.4951 16.6442 16.7203 15.6563 15.5096C15.1468 14.9388 14.5227 14.4819 13.8245 14.1685C13.1263 13.8551 12.3698 13.6923 11.6044 13.6908C10.839 13.6893 10.0819 13.849 9.38248 14.1597C8.68306 14.4703 8.05706 14.9248 7.54534 15.4935C6.57005 16.6953 6.08243 18.4764 6.08243 20.8367C6.08243 23.1969 6.57005 24.9833 7.54534 26.1959C8.05588 26.7694 8.68242 27.228 9.38353 27.5416C10.0846 27.8552 10.8444 28.0166 11.6125 28.0151C12.3807 28.0135 13.1397 27.8492 13.8396 27.5328C14.5395 27.2164 15.1642 26.7553 15.6724 26.1798" fill="#CBC081"/>
<path d="M46.7857 29.7042C46.7861 30.057 46.7141 30.4062 46.5742 30.7303C46.4344 31.0543 46.2297 31.3462 45.9726 31.5882C45.7254 31.8473 45.4277 32.053 45.0979 32.1927C44.768 32.3325 44.413 32.4032 44.0547 32.4006C43.6342 32.3901 43.2205 32.2923 42.8399 32.1134C42.4593 31.9344 42.1201 31.6783 41.8439 31.3613L32.5792 21.8768V29.5424C32.5996 29.9389 32.538 30.3353 32.3983 30.707C32.2585 31.0786 32.0435 31.4175 31.7667 31.7024C31.47 31.9757 31.1216 32.187 30.7418 32.3236C30.3621 32.4603 29.9589 32.5196 29.5559 32.498C29.1593 32.5297 28.7606 32.4749 28.3873 32.3376C28.014 32.2003 27.6749 31.9836 27.3936 31.7026C27.1123 31.4216 26.8954 31.0829 26.7578 30.7099C26.6203 30.337 26.5655 29.9386 26.5971 29.5424V12.164C26.5783 11.7739 26.6392 11.3841 26.7761 11.0182C26.913 10.6524 27.123 10.3183 27.3934 10.0362C27.6809 9.76417 28.0209 9.55337 28.3925 9.4166C28.7641 9.27983 29.1597 9.21995 29.5551 9.24061C29.9581 9.21915 30.3614 9.27849 30.7411 9.41513C31.1208 9.55177 31.4693 9.76295 31.766 10.0362C32.0408 10.3159 32.2547 10.6493 32.3945 11.0154C32.5343 11.3815 32.5969 11.7725 32.5785 12.164V19.3078L41.7149 10.121C41.951 9.85236 42.2403 9.63573 42.5646 9.48483C42.8889 9.33393 43.2411 9.25206 43.5988 9.24442C43.9564 9.23678 44.3118 9.30354 44.6423 9.44046C44.9727 9.57737 45.2711 9.78145 45.5184 10.0397C45.7758 10.278 45.9809 10.567 46.1207 10.8886C46.2605 11.2101 46.3321 11.5571 46.3308 11.9076C46.3199 12.2852 46.2304 12.6563 46.0681 12.9974C45.9058 13.3386 45.6742 13.6422 45.388 13.889L38.7239 20.4179L45.9439 27.8237C46.209 28.0611 46.4212 28.3514 46.5668 28.676C46.7125 29.0005 46.7882 29.352 46.7892 29.7077" fill="#CBC081"/>
<path d="M221.941 10.1697C222.339 9.91687 222.801 9.78364 223.273 9.78592C223.963 9.78477 224.629 10.0336 225.149 10.4863C225.413 10.6928 225.625 10.9571 225.77 11.2588C225.915 11.5605 225.989 11.8914 225.986 12.226C225.978 12.5888 225.885 12.9448 225.715 13.2654L217.177 31.0549C216.979 31.5222 216.644 31.9188 216.216 32.1929C215.789 32.4669 215.288 32.6056 214.781 32.5909C214.111 32.5995 213.461 32.367 212.949 31.936C212.698 31.7409 212.497 31.4904 212.359 31.2042C212.222 30.9181 212.153 30.604 212.158 30.2866C212.171 29.8957 212.264 29.5115 212.429 29.1569L220.967 11.3674C221.163 10.8793 221.503 10.4619 221.941 10.1697Z" fill="#E3BE99"/>
<path d="M241.428 10.1697C241.826 9.91683 242.288 9.7836 242.76 9.78592C243.45 9.78483 244.116 10.0337 244.636 10.4863C244.9 10.6928 245.112 10.9572 245.257 11.2588C245.402 11.5605 245.476 11.8914 245.473 12.226C245.465 12.5889 245.372 12.9448 245.201 13.2654L236.663 31.0549C236.465 31.5222 236.13 31.9188 235.703 32.1929C235.275 32.4669 234.775 32.6056 234.267 32.5909C233.597 32.5994 232.947 32.367 232.435 31.936C232.185 31.7409 231.983 31.4904 231.846 31.2042C231.708 30.9181 231.639 30.604 231.644 30.2866C231.657 29.8957 231.75 29.5115 231.915 29.1569L240.453 11.3674C240.65 10.8792 240.99 10.4617 241.428 10.1697Z" fill="#FFCF90"/>
<path d="M231.785 10.1684C232.183 9.91546 232.645 9.78266 233.117 9.78595C233.804 9.78567 234.468 10.0345 234.986 10.4863C235.249 10.6919 235.461 10.9552 235.605 11.2558C235.75 11.5564 235.823 11.8863 235.82 12.2198C235.812 12.5814 235.719 12.9362 235.549 13.2556L234.631 15.0353C234.433 15.5007 234.099 15.8958 233.673 16.1688C233.247 16.4418 232.748 16.5801 232.243 16.5656C231.576 16.5735 230.929 16.3419 230.42 15.9128C230.17 15.7185 229.969 15.469 229.833 15.1839C229.696 14.8988 229.627 14.5859 229.631 14.2698C229.645 13.8802 229.737 13.4975 229.902 13.1443L230.82 11.3646C231.014 10.8781 231.35 10.4613 231.785 10.1684Z" fill="#F7F3EE"/>
<path d="M227.765 18.1952C228.163 17.9423 228.625 17.8095 229.097 17.8128C229.784 17.8122 230.449 18.0611 230.967 18.5132C231.229 18.7187 231.441 18.9819 231.586 19.2824C231.73 19.5829 231.804 19.9125 231.8 20.2459C231.792 20.6073 231.7 20.9619 231.53 21.2811L230.611 23.0614C230.413 23.5268 230.079 23.9217 229.653 24.1947C229.227 24.4677 228.729 24.6061 228.223 24.5918C227.557 24.5996 226.91 24.3679 226.401 23.939C226.151 23.7446 225.95 23.4951 225.813 23.21C225.676 22.9249 225.608 22.612 225.612 22.2959C225.625 21.9064 225.717 21.5237 225.882 21.1704L226.801 19.3901C226.995 18.9041 227.331 18.4878 227.765 18.1952Z" fill="#F7F3EE"/>
<path d="M223.749 26.2223C224.147 25.9696 224.609 25.8368 225.081 25.8399C225.768 25.8397 226.432 26.0885 226.95 26.5403C227.213 26.746 227.425 27.0094 227.569 27.3099C227.714 27.6105 227.787 27.9403 227.784 28.2737C227.776 28.6351 227.683 28.9895 227.514 29.3089L226.595 31.0885C226.397 31.5538 226.063 31.9487 225.637 32.2217C225.211 32.4947 224.713 32.6331 224.207 32.6188C223.541 32.6267 222.894 32.3951 222.385 31.9661C222.135 31.7717 221.934 31.5221 221.797 31.2371C221.661 30.952 221.592 30.6391 221.596 30.323C221.61 29.9335 221.702 29.5507 221.867 29.1975L222.785 27.4179C222.979 26.9318 223.315 26.5152 223.749 26.2223Z" fill="#F7F3EE"/>
</svg>